HIERARCHY
ROOT Hips
{
	OFFSET 0.00000 0.00000 0.00000
	CHANNELS 6 Xposition Yposition Zposition Zrotation Yrotation Xrotation 
	JOINT LHipJoint
	{
		OFFSET 0 0 0
		CHANNELS 3 Zrotation Yrotation Xrotation
		JOINT LeftUpLeg
		{
			OFFSET 1.58895 -1.83665 0.71753
			CHANNELS 3 Zrotation Yrotation Xrotation
			JOINT LeftLeg
			{
				OFFSET 2.50528 -6.88321 0.00000
				CHANNELS 3 Zrotation Yrotation Xrotation
				JOINT LeftFoot
				{
					OFFSET 2.63244 -7.23257 0.00000
					CHANNELS 3 Zrotation Yrotation Xrotation
					JOINT LeftToeBase
					{
						OFFSET 0.23691 -0.65090 1.72750
						CHANNELS 3 Zrotation Yrotation Xrotation
						End Site
						{
							OFFSET 0.00000 -0.00000 0.92561
						}
					}
				}
			}
		}
	}
	JOINT RHipJoint
	{
		OFFSET 0 0 0
		CHANNELS 3 Zrotation Yrotation Xrotation
		JOINT RightUpLeg
		{
			OFFSET -1.51435 -1.83665 0.71753
			CHANNELS 3 Zrotation Yrotation Xrotation
			JOINT RightLeg
			{
				OFFSET -2.54551 -6.99375 0.00000
				CHANNELS 3 Zrotation Yrotation Xrotation
				JOINT RightFoot
				{
					OFFSET -2.66027 -7.30903 0.00000
					CHANNELS 3 Zrotation Yrotation Xrotation
					JOINT RightToeBase
					{
						OFFSET -0.22981 -0.63138 2.03959
						CHANNELS 3 Zrotation Yrotation Xrotation
						End Site
						{
							OFFSET -0.00000 -0.00000 1.07060
						}
					}
				}
			}
		}
	}
	JOINT LowerBack
	{
		OFFSET 0 0 0
		CHANNELS 3 Zrotation Yrotation Xrotation
		JOINT Spine
		{
			OFFSET -0.02651 1.86275 -0.11152
			CHANNELS 3 Zrotation Yrotation Xrotation
			JOINT Spine1
			{
				OFFSET 0.01019 1.86224 0.04087
				CHANNELS 3 Zrotation Yrotation Xrotation
				JOINT Neck
				{
					OFFSET 0 0 0
					CHANNELS 3 Zrotation Yrotation Xrotation
					JOINT Neck1
					{
						OFFSET -0.01926 1.80512 0.08867
						CHANNELS 3 Zrotation Yrotation Xrotation
						JOINT Head
						{
							OFFSET 0.05516 1.76451 -0.38475
							CHANNELS 3 Zrotation Yrotation Xrotation
							End Site
							{
								OFFSET 0.01592 1.82587 -0.14001
							}
						}
					}
				}
				JOINT LeftShoulder
				{
					OFFSET 0 0 0
					CHANNELS 3 Zrotation Yrotation Xrotation
					JOINT LeftArm
					{
						OFFSET 3.47116 1.51376 0.14491
						CHANNELS 3 Zrotation Yrotation Xrotation
						JOINT LeftForeArm
						{
							OFFSET 4.78095 -0.00000 0.00000
							CHANNELS 3 Zrotation Yrotation Xrotation
							JOINT LeftHand
							{
								OFFSET 3.58615 -0.00000 -0.00000
								CHANNELS 3 Zrotation Yrotation Xrotation
								JOINT LeftFingerBase
								{
									OFFSET 0 0 0
									CHANNELS 3 Zrotation Yrotation Xrotation
									JOINT LeftHandIndex1
									{
										OFFSET 0.65981 -0.00000 0.00000
										CHANNELS 3 Zrotation Yrotation Xrotation
										End Site
										{
											OFFSET 0.53196 -0.00000 0.00000
										}
									}
								}
								JOINT LThumb
								{
									OFFSET 0 0 0
									CHANNELS 3 Zrotation Yrotation Xrotation
									End Site
									{
										OFFSET 0.54008 -0.00000 0.54008
									}
								}
							}
						}
					}
				}
				JOINT RightShoulder
				{
					OFFSET 0 0 0
					CHANNELS 3 Zrotation Yrotation Xrotation
					JOINT RightArm
					{
						OFFSET -3.31725 1.61216 0.35156
						CHANNELS 3 Zrotation Yrotation Xrotation
						JOINT RightForeArm
						{
							OFFSET -4.48913 -0.00000 0.00000
							CHANNELS 3 Zrotation Yrotation Xrotation
							JOINT RightHand
							{
								OFFSET -3.70510 -0.00000 0.00000
								CHANNELS 3 Zrotation Yrotation Xrotation
								JOINT RightFingerBase
								{
									OFFSET 0 0 0
									CHANNELS 3 Zrotation Yrotation Xrotation
									JOINT RightHandIndex1
									{
										OFFSET -0.44914 -0.00000 0.00000
										CHANNELS 3 Zrotation Yrotation Xrotation
										End Site
										{
											OFFSET -0.36211 -0.00000 0.00000
										}
									}
								}
								JOINT RThumb
								{
									OFFSET 0 0 0
									CHANNELS 3 Zrotation Yrotation Xrotation
									End Site
									{
										OFFSET -0.36763 -0.00000 0.36763
									}
								}
							}
						}
					}
				}
			}
		}
	}
}
MOTION
Frames: 16
Frame Time: .0083333
-0.6711 18.7959 5.3526 -0.5711 7.1885 4.8922 0.0000 0.0000 0.0000 -12.6807 -12.1046 -7.9183 1.3917 7.4635 21.0961 1.0478 4.3428 -21.3639 8.3861 -16.3960 -53.9417 0.0000 0.0000 0.0000 0.0000 0.0000 0.0000 0.0000 0.0000 0.0000 -0.0000 -0.0000 0.0000 -0.0000 -0.0000 0.0000 5.7981 4.5364 8.2278 2.5447 6.5650 2.2692 -1.2123 3.2572 -1.8863 -8.7112 -9.6489 -9.3403 5.4883 -12.7854 17.4990 1.9071 -6.1813 7.8578 0.0000 -0.0000 0.0000 -86.4635 -6.5124 67.8791 118.7360 -56.6374 -84.6052 -0.0000 0.0000 -75.1604 16.4446 -12.1364 -3.5509 -7.1250 0.0000 -0.0000 -7.4932 17.4079 4.9510 0.0000 -0.0000 0.0000 53.2736 58.4030 2.7315 -23.6176 34.7572 -7.4874 0.0000 -0.0000 -32.2571 -18.0218 -63.0365 16.1708 7.1250 -0.0000 -0.0000 98.8144 77.3319 111.8567
-0.6711 18.7978 5.3520 -0.5791 7.2853 4.9794 0.0000 0.0000 0.0000 -12.6409 -12.1771 -8.0325 1.3927 7.4662 21.1040 1.0446 4.3253 -21.3247 8.3882 -16.3975 -53.9490 0.0000 0.0000 0.0000 0.0000 0.0000 0.0000 0.0000 0.0000 0.0000 -0.0000 -0.0000 0.0000 -0.0000 -0.0000 0.0000 5.9179 4.4878 8.2563 2.5935 6.5115 2.3068 -1.2235 3.2316 -1.8583 -8.5973 -9.5864 -9.3705 5.3886 -12.6943 17.4782 1.8682 -6.1390 7.8346 0.0000 0.0000 0.0000 -86.5000 -6.5519 67.7862 118.7873 -56.6245 -84.6480 -0.0000 0.0000 -75.1601 16.4759 -12.1421 -3.5597 -7.1250 0.0000 -0.0000 -7.4714 17.3998 4.9377 0.0000 0.0000 0.0000 53.1998 58.4845 2.6419 -23.6263 34.7666 -7.4924 0.0000 -0.0000 -32.3486 -17.9553 -63.0020 16.1057 7.1250 -0.0000 -0.0000 98.6000 77.3262 111.6512
-0.6712 18.7983 5.3525 -0.6448 7.3608 5.0438 0.0000 0.0000 0.0000 -12.5333 -12.1141 -8.1556 1.3911 7.4620 21.0915 1.0418 4.2071 -21.2324 8.3778 -16.3902 -53.9125 0.0000 0.0000 0.0000 0.0000 0.0000 0.0000 0.0000 0.0000 0.0000 -0.0000 -0.0000 0.0000 -0.0000 -0.0000 0.0000 6.0923 4.4502 8.3127 2.6522 6.4805 2.3297 -1.2593 3.2161 -1.8549 -8.5031 -9.5613 -9.4668 5.3042 -12.6548 17.5517 1.8259 -6.1185 7.8608 0.0000 0.0000 0.0000 -86.5365 -6.5926 67.7390 118.8830 -56.6003 -84.7279 -0.0000 0.0000 -75.2045 16.5081 -12.1543 -3.5705 -7.1250 0.0000 -0.0000 -7.4491 17.3848 4.9251 0.0000 0.0000 0.0000 53.1826 58.5498 2.5796 -23.6139 34.7533 -7.4853 0.0000 -0.0000 -32.2838 -17.7213 -62.9244 15.8826 7.1250 -0.0000 -0.0000 98.0165 77.2911 111.1127
-0.6717 18.7983 5.3556 -0.6411 7.4452 5.0974 0.0000 0.0000 0.0000 -12.5125 -12.1039 -8.2223 1.3884 7.4551 21.0709 1.0386 4.1260 -21.1576 8.3731 -16.3869 -53.8955 0.0000 0.0000 0.0000 0.0000 0.0000 0.0000 0.0000 0.0000 0.0000 -0.0000 -0.0000 0.0000 -0.0000 -0.0000 0.0000 6.1809 4.4248 8.3309 2.6806 6.4551 2.3475 -1.2768 3.2039 -1.8414 -8.5535 -9.5525 -9.4974 5.4066 -12.6565 17.6427 1.8633 -6.1115 7.9069 -0.0000 0.0000 0.0000 -86.4943 -6.5884 67.7390 119.0429 -56.5596 -84.8614 -0.0000 0.0000 -75.2502 16.5112 -12.1578 -3.5723 -7.1250 0.0000 -0.0000 -7.4468 17.3810 4.9243 -0.0000 0.0000 0.0000 53.1291 58.5351 2.5573 -23.5910 34.7287 -7.4723 0.0000 -0.0000 -32.2172 -17.7210 -62.7448 15.8581 7.1250 -0.0000 -0.0000 97.3207 77.3450 110.3634
-0.6711 18.7984 5.3601 -0.5279 7.5093 5.1578 0.0000 0.0000 0.0000 -12.6284 -12.1709 -8.2423 1.3860 7.4489 21.0523 1.0383 4.1099 -21.1453 8.3692 -16.3842 -53.8818 0.0000 0.0000 0.0000 0.0000 0.0000 0.0000 0.0000 0.0000 0.0000 -0.0000 -0.0000 0.0000 -0.0000 -0.0000 0.0000 6.1665 4.4219 8.3220 2.6455 6.4484 2.3457 -1.3037 3.2008 -1.8363 -8.5805 -9.5428 -9.4187 5.5154 -12.6668 17.6635 1.9047 -6.1098 7.9098 0.0000 -0.0000 0.0000 -86.4164 -6.5894 67.8022 119.0610 -56.5550 -84.8765 -0.0000 0.0000 -75.2464 16.4778 -12.1594 -3.5651 -7.1250 0.0000 -0.0000 -7.4700 17.3819 4.9397 0.0000 -0.0000 0.0000 53.0956 58.4143 2.5535 -23.6537 34.7959 -7.5080 0.0000 -0.0000 -32.3280 -18.2109 -62.5751 16.2789 7.1250 -0.0000 -0.0000 97.2547 77.5231 110.1030
-0.6699 18.7995 5.3650 -0.4643 7.5234 5.2074 0.0000 0.0000 0.0000 -12.6956 -12.1962 -8.2552 1.3825 7.4400 21.0256 1.0371 4.1351 -21.1487 8.3680 -16.3834 -53.8778 0.0000 0.0000 0.0000 0.0000 0.0000 0.0000 0.0000 0.0000 0.0000 -0.0000 -0.0000 0.0000 -0.0000 -0.0000 0.0000 6.1749 4.4249 8.3330 2.6324 6.4549 2.3220 -1.3245 3.2027 -1.8640 -8.5346 -9.5204 -9.3310 5.5265 -12.6512 17.6485 1.9079 -6.1005 7.8856 -0.0000 0.0000 0.0000 -86.4020 -6.5864 67.8604 118.9309 -56.5882 -84.7679 -0.0000 0.0000 -75.2202 16.3887 -12.2089 -3.5590 -7.1250 0.0000 -0.0000 -7.5321 17.3375 4.9889 -0.0000 0.0000 0.0000 53.1657 58.2407 2.6324 -23.8156 34.9686 -7.6006 0.0000 -0.0000 -32.5459 -18.5869 -62.8188 16.6544 7.1250 -0.0000 -0.0000 98.6790 77.5435 111.4910
-0.6693 18.8008 5.3697 -0.4743 7.5177 5.2155 0.0000 0.0000 0.0000 -12.6845 -12.2020 -8.2356 1.3790 7.4309 20.9983 1.0343 4.1868 -21.1535 8.3756 -16.3887 -53.9045 0.0000 0.0000 0.0000 0.0000 0.0000 0.0000 0.0000 0.0000 0.0000 -0.0000 -0.0000 0.0000 -0.0000 -0.0000 0.0000 6.2309 4.3985 8.3618 2.6531 6.4276 2.3202 -1.3341 3.1884 -1.8799 -8.3902 -9.4694 -9.3328 5.3927 -12.5779 17.6418 1.8521 -6.0683 7.8592 0.0000 -0.0000 0.0000 -86.4240 -6.5838 67.8259 118.8451 -56.6099 -84.6962 -0.0000 0.0000 -75.2088 16.3317 -12.2999 -3.5719 -7.1250 0.0000 -0.0000 -7.5718 17.2482 5.0306 0.0000 -0.0000 0.0000 53.3078 58.2070 2.6938 -23.8932 35.0512 -7.6452 0.0000 -0.0000 -32.5959 -18.4465 -63.1475 16.5725 7.1250 -0.0000 -0.0000 99.7682 77.3999 112.7211
-0.6685 18.7997 5.3740 -0.4627 7.5040 5.2030 0.0000 0.0000 0.0000 -12.7043 -12.1861 -8.1954 1.3772 7.4263 20.9847 1.0392 4.1591 -21.1814 8.3773 -16.3899 -53.9105 0.0000 0.0000 0.0000 0.0000 0.0000 0.0000 0.0000 0.0000 0.0000 -0.0000 -0.0000 0.0000 -0.0000 -0.0000 0.0000 6.2703 4.3613 8.4026 2.6584 6.3846 2.3271 -1.3499 3.1666 -1.8943 -8.2177 -9.4308 -9.3922 5.1899 -12.5110 17.6808 1.7656 -6.0418 7.8524 -0.0000 -0.0000 0.0000 -86.4520 -6.5542 67.7610 118.8748 -56.6024 -84.7211 -0.0000 0.0000 -75.2174 16.4132 -12.3299 -3.5993 -7.1250 0.0000 -0.0000 -7.5153 17.2112 4.9985 -0.0000 -0.0000 0.0000 53.4011 58.2525 2.6945 -23.8765 35.0333 -7.6355 0.0000 -0.0000 -32.6022 -18.0053 -63.2197 16.1806 7.1250 -0.0000 -0.0000 99.4928 77.2681 112.5950
-0.6674 18.7985 5.3791 -0.4484 7.4794 5.2040 0.0000 0.0000 0.0000 -12.7287 -12.1578 -8.1644 1.3760 7.4230 20.9749 1.0447 4.1296 -21.2137 8.3766 -16.3894 -53.9081 0.0000 0.0000 0.0000 0.0000 0.0000 0.0000 0.0000 0.0000 0.0000 -0.0000 -0.0000 0.0000 -0.0000 -0.0000 0.0000 6.2811 4.3316 8.3966 2.6665 6.3454 2.3325 -1.3434 3.1474 -1.8876 -8.1733 -9.4211 -9.4527 5.0881 -12.4832 17.7288 1.7259 -6.0329 7.8672 0.0000 0.0000 0.0000 -86.4627 -6.4924 67.7033 119.0001 -56.5706 -84.8257 -0.0000 0.0000 -75.2295 16.5800 -12.3203 -3.6351 -7.1250 0.0000 -0.0000 -7.3995 17.2085 4.9206 0.0000 0.0000 0.0000 53.4001 58.2635 2.7679 -23.8740 35.0307 -7.6341 0.0000 -0.0000 -32.7748 -17.6981 -63.1678 15.8941 7.1250 -0.0000 -0.0000 98.9203 77.2092 112.0959
-0.6673 18.7990 5.3861 -0.4674 7.4284 5.2081 0.0000 0.0000 0.0000 -12.7163 -12.1707 -8.1176 1.3742 7.4184 20.9609 1.0468 4.2018 -21.2734 8.3820 -16.3932 -53.9273 0.0000 0.0000 0.0000 0.0000 0.0000 0.0000 0.0000 0.0000 0.0000 -0.0000 -0.0000 0.0000 -0.0000 -0.0000 0.0000 6.2899 4.3187 8.3315 2.6790 6.3231 2.3471 -1.3271 3.1381 -1.8384 -8.2008 -9.4213 -9.4844 5.0832 -12.4762 17.7351 1.7276 -6.0311 7.8760 0.0000 0.0000 0.0000 -86.4692 -6.4709 67.6435 119.0281 -56.5634 -84.8490 -0.0000 0.0000 -75.1794 16.5796 -12.3289 -3.6375 -7.1250 0.0000 -0.0000 -7.3998 17.1997 4.9222 0.0000 0.0000 0.0000 53.4340 58.2202 2.9007 -23.9246 35.0844 -7.6632 0.0000 -0.0000 -33.0279 -17.7457 -63.0282 15.9187 7.1250 -0.0000 -0.0000 98.4450 77.2652 111.5650
-0.6680 18.7987 5.3940 -0.4918 7.3411 5.1928 0.0000 0.0000 0.0000 -12.6954 -12.0870 -8.0873 1.3738 7.4175 20.9582 1.0497 4.2002 -21.2987 8.3907 -16.3992 -53.9579 0.0000 0.0000 0.0000 0.0000 0.0000 0.0000 0.0000 0.0000 0.0000 -0.0000 -0.0000 0.0000 -0.0000 -0.0000 0.0000 6.2757 4.3205 8.2939 2.6874 6.3216 2.3424 -1.3076 3.1377 -1.8251 -8.2537 -9.4067 -9.4534 5.1366 -12.4590 17.7100 1.7566 -6.0228 7.8681 -0.0000 0.0000 0.0000 -86.5160 -6.4485 67.5806 118.9457 -56.5844 -84.7803 -0.0000 0.0000 -75.0635 16.4499 -12.2962 -3.5981 -7.1250 0.0000 -0.0000 -7.4898 17.2432 4.9760 -0.0000 0.0000 0.0000 53.5679 58.0967 3.0666 -24.0233 35.1889 -7.7200 0.0000 -0.0000 -33.3419 -17.6538 -62.9244 15.8214 7.1250 -0.0000 -0.0000 97.9349 77.2739 111.0508
-0.6680 18.7977 5.4006 -0.4827 7.2641 5.1670 0.0000 0.0000 0.0000 -12.7098 -11.9292 -8.0782 1.3745 7.4193 20.9636 1.0507 4.1073 -21.2550 8.4028 -16.4077 -54.0008 0.0000 0.0000 0.0000 0.0000 0.0000 0.0000 0.0000 0.0000 0.0000 -0.0000 -0.0000 0.0000 -0.0000 -0.0000 0.0000 6.2286 4.3107 8.2822 2.6888 6.3046 2.3302 -1.2789 3.1288 -1.8378 -8.2967 -9.3684 -9.4781 5.1627 -12.4034 17.7243 1.7768 -5.9964 7.8779 -0.0000 -0.0000 0.0000 -86.5580 -6.3823 67.5113 118.9622 -56.5802 -84.7940 -0.0000 0.0000 -74.9842 16.3830 -12.1754 -3.5481 -7.1250 0.0000 -0.0000 -7.5361 17.3725 4.9857 -0.0000 -0.0000 0.0000 53.6901 57.9730 3.2648 -24.1354 35.3071 -7.7846 0.0000 -0.0000 -33.6487 -16.8390 -63.2231 15.1206 7.1250 -0.0000 -0.0000 98.1116 76.9768 111.5527
-0.6670 18.7979 5.4068 -0.4577 7.1785 5.1631 0.0000 0.0000 0.0000 -12.7495 -11.8620 -8.0504 1.3751 7.4208 20.9681 1.0522 4.1355 -21.2840 8.4125 -16.4144 -54.0351 0.0000 0.0000 0.0000 0.0000 0.0000 0.0000 0.0000 0.0000 0.0000 -0.0000 -0.0000 0.0000 -0.0000 -0.0000 0.0000 6.1709 4.3094 8.2109 2.6811 6.2919 2.3345 -1.2481 3.1238 -1.8000 -8.2792 -9.3418 -9.5767 5.0874 -12.3497 17.7571 1.7511 -5.9743 7.8963 -0.0000 0.0000 0.0000 -86.5675 -6.3253 67.4657 119.0413 -56.5600 -84.8600 -0.0000 0.0000 -74.9350 16.3324 -12.0926 -3.5129 -7.1250 0.0000 -0.0000 -7.5711 17.4613 4.9945 -0.0000 0.0000 0.0000 53.7519 57.8756 3.4522 -24.2481 35.4256 -7.8499 0.0000 -0.0000 -33.7952 -15.7384 -63.5129 14.1565 7.1250 -0.0000 -0.0000 97.9539 76.6140 111.7976
-0.6665 18.7988 5.4143 -0.4540 7.0405 5.1640 0.0000 0.0000 0.0000 -12.7681 -11.8205 -7.9989 1.3763 7.4241 20.9779 1.0619 4.1941 -21.4042 8.3909 -16.3993 -53.9586 0.0000 0.0000 0.0000 0.0000 0.0000 0.0000 0.0000 0.0000 0.0000 -0.0000 -0.0000 0.0000 -0.0000 -0.0000 0.0000 6.1073 4.3267 8.1058 2.6637 6.3010 2.3283 -1.2232 3.1299 -1.7528 -8.2054 -9.3215 -9.5812 5.0009 -12.3145 17.7042 1.7171 -5.9613 7.8664 -0.0000 -0.0000 0.0000 -86.5413 -6.2559 67.4365 119.1564 -56.5306 -84.9561 -0.0000 0.0000 -74.8903 16.3541 -12.1052 -3.5214 -7.1250 0.0000 -0.0000 -7.5560 17.4468 4.9867 -0.0000 -0.0000 0.0000 53.8309 57.6531 3.7985 -24.4749 35.6625 -7.9818 0.0000 -0.0000 -34.0662 -15.3649 -63.2114 13.7823 7.1250 -0.0000 -0.0000 96.4266 76.6000 110.2939
-0.6671 18.7996 5.4227 -0.4993 6.8655 5.1476 0.0000 0.0000 0.0000 -12.7271 -11.7160 -7.9465 1.3772 7.4261 20.9841 1.0738 4.1789 -21.5006 8.3653 -16.3815 -53.8680 0.0000 0.0000 0.0000 0.0000 0.0000 0.0000 0.0000 0.0000 0.0000 -0.0000 -0.0000 0.0000 -0.0000 -0.0000 0.0000 6.0588 4.3428 8.0055 2.6516 6.3113 2.3056 -1.2024 3.1356 -1.7242 -8.1493 -9.2735 -9.5242 4.9980 -12.2579 17.6196 1.7186 -5.9336 7.8203 -0.0000 -0.0000 0.0000 -86.4850 -6.1862 67.3747 119.2927 -56.4955 -85.0698 -0.0000 0.0000 -74.8939 16.3644 -12.1309 -3.5311 -7.1250 0.0000 -0.0000 -7.5489 17.4196 4.9865 -0.0000 -0.0000 0.0000 53.9874 57.2562 4.4400 -24.9269 36.1292 -8.2468 0.0000 -0.0000 -34.7037 -15.6749 -62.8187 14.0160 7.1250 -0.0000 -0.0000 95.2746 76.7814 108.9406
-0.6671 18.7994 5.4310 -0.5874 6.6723 5.1400 0.0000 0.0000 0.0000 -12.6449 -11.6467 -7.8850 1.3758 7.4228 20.9740 1.0844 4.2307 -21.6231 8.3504 -16.3710 -53.8152 0.0000 0.0000 0.0000 0.0000 0.0000 0.0000 0.0000 0.0000 0.0000 -0.0000 -0.0000 0.0000 -0.0000 -0.0000 0.0000 6.0429 4.3660 7.9080 2.6469 6.3351 2.2665 -1.1938 3.1473 -1.7106 -8.1936 -9.2195 -9.5157 5.0888 -12.1958 17.6306 1.7621 -5.8994 7.8268 0.0000 -0.0000 0.0000 -86.4315 -6.1350 67.3046 119.3370 -56.4840 -85.1067 -0.0000 0.0000 -74.9005 16.2553 -12.1525 -3.5124 -7.1250 0.0000 -0.0000 -7.6248 17.4054 5.0400 0.0000 -0.0000 0.0000 54.1563 56.6766 5.3442 -25.6288 36.8398 -8.6641 0.0000 -0.0000 -35.4839 -16.1601 -62.9236 14.4676 7.1250 -0.0000 -0.0000 96.2043 76.8850 109.7571
